<mxfile host="Electron" modified="2024-07-18T08:48:33.771Z" agent="Mozilla/5.0 (X11; Linux x86_64) AppleWebKit/537.36 (KHTML, like Gecko) draw.io/24.4.8 Chrome/124.0.6367.207 Electron/30.0.6 Safari/537.36" etag="vakJsWgFAzZhnNKn9MXK" version="24.3.1" type="device">
  <diagram name="第 1 页" id="CFjjF7xPAdmk1olY0h8q">
    <mxGraphModel dx="1430" dy="824" grid="1" gridSize="10" guides="1" tooltips="1" connect="1" arrows="1" fold="1" page="1" pageScale="1" pageWidth="827" pageHeight="1169" math="0" shadow="0">
      <root>
        <mxCell id="0" />
        <mxCell id="1" parent="0" />
        <mxCell id="dvYXu0OYRY7wIcwB4xTE-47" value="0x70 freelist" style="text;html=1;align=center;verticalAlign=middle;whiteSpace=wrap;rounded=0;fontFamily=寒蝉圆黑体;fontStyle=1;labelBackgroundColor=none;" vertex="1" parent="1">
          <mxGeometry x="140" y="40" width="100" height="30" as="geometry" />
        </mxCell>
        <mxCell id="dvYXu0OYRY7wIcwB4xTE-48" style="edgeStyle=orthogonalEdgeStyle;rounded=0;orthogonalLoop=1;jettySize=auto;html=1;exitX=0.5;exitY=1;exitDx=0;exitDy=0;entryX=0.5;entryY=0;entryDx=0;entryDy=0;fontFamily=寒蝉圆黑体;fontStyle=1;labelBackgroundColor=none;" edge="1" source="dvYXu0OYRY7wIcwB4xTE-49" target="dvYXu0OYRY7wIcwB4xTE-51" parent="1">
          <mxGeometry relative="1" as="geometry" />
        </mxCell>
        <mxCell id="dvYXu0OYRY7wIcwB4xTE-49" value="" style="ellipse;whiteSpace=wrap;html=1;aspect=fixed;fontFamily=寒蝉圆黑体;fontStyle=1;labelBackgroundColor=none;fillColor=none;" vertex="1" parent="1">
          <mxGeometry x="180" y="80" width="20" height="20" as="geometry" />
        </mxCell>
        <mxCell id="dvYXu0OYRY7wIcwB4xTE-50" value="" style="edgeStyle=orthogonalEdgeStyle;rounded=0;orthogonalLoop=1;jettySize=auto;html=1;fontFamily=寒蝉圆黑体;fontStyle=1;labelBackgroundColor=none;" edge="1" source="dvYXu0OYRY7wIcwB4xTE-51" target="dvYXu0OYRY7wIcwB4xTE-53" parent="1">
          <mxGeometry relative="1" as="geometry" />
        </mxCell>
        <mxCell id="dvYXu0OYRY7wIcwB4xTE-51" value="0x000" style="rounded=0;whiteSpace=wrap;html=1;fontFamily=寒蝉圆黑体;fontStyle=1;labelBackgroundColor=none;fillColor=none;" vertex="1" parent="1">
          <mxGeometry x="170" y="120" width="40" height="20" as="geometry" />
        </mxCell>
        <mxCell id="dvYXu0OYRY7wIcwB4xTE-52" value="" style="edgeStyle=orthogonalEdgeStyle;rounded=0;orthogonalLoop=1;jettySize=auto;html=1;fontFamily=寒蝉圆黑体;fontStyle=1;labelBackgroundColor=none;" edge="1" source="dvYXu0OYRY7wIcwB4xTE-53" parent="1">
          <mxGeometry relative="1" as="geometry">
            <mxPoint x="190" y="200" as="targetPoint" />
          </mxGeometry>
        </mxCell>
        <mxCell id="dvYXu0OYRY7wIcwB4xTE-53" value="0x070" style="rounded=0;whiteSpace=wrap;html=1;fontFamily=寒蝉圆黑体;fontStyle=1;labelBackgroundColor=none;fillColor=none;" vertex="1" parent="1">
          <mxGeometry x="170" y="160" width="40" height="20" as="geometry" />
        </mxCell>
        <mxCell id="dvYXu0OYRY7wIcwB4xTE-56" value="" style="edgeStyle=orthogonalEdgeStyle;rounded=0;orthogonalLoop=1;jettySize=auto;html=1;fontFamily=寒蝉圆黑体;fontStyle=1;labelBackgroundColor=none;" edge="1" source="dvYXu0OYRY7wIcwB4xTE-57" target="dvYXu0OYRY7wIcwB4xTE-58" parent="1">
          <mxGeometry relative="1" as="geometry" />
        </mxCell>
        <mxCell id="dvYXu0OYRY7wIcwB4xTE-57" value="0x2A0" style="rounded=0;whiteSpace=wrap;html=1;fontFamily=寒蝉圆黑体;fontStyle=1;labelBackgroundColor=none;fillColor=none;" vertex="1" parent="1">
          <mxGeometry x="170" y="240" width="40" height="20" as="geometry" />
        </mxCell>
        <mxCell id="dvYXu0OYRY7wIcwB4xTE-58" value="0x310" style="rounded=0;whiteSpace=wrap;html=1;fontFamily=寒蝉圆黑体;fontStyle=1;labelBackgroundColor=none;fillColor=none;" vertex="1" parent="1">
          <mxGeometry x="170" y="280" width="40" height="20" as="geometry" />
        </mxCell>
        <mxCell id="dvYXu0OYRY7wIcwB4xTE-59" value="" style="shape=flexArrow;endArrow=classic;html=1;rounded=0;endWidth=11.03448275862069;endSize=9.772413793103448;fontFamily=寒蝉圆黑体;fontStyle=1;labelBackgroundColor=none;fillColor=none;" edge="1" parent="1">
          <mxGeometry width="50" height="50" relative="1" as="geometry">
            <mxPoint x="250" y="190" as="sourcePoint" />
            <mxPoint x="330" y="190" as="targetPoint" />
          </mxGeometry>
        </mxCell>
        <mxCell id="dvYXu0OYRY7wIcwB4xTE-84" value="&lt;div&gt;alloc(0x70) * n&lt;/div&gt;" style="edgeLabel;html=1;align=center;verticalAlign=middle;resizable=0;points=[];fontFamily=寒蝉圆黑体;fontStyle=1;labelBackgroundColor=none;" vertex="1" connectable="0" parent="dvYXu0OYRY7wIcwB4xTE-59">
          <mxGeometry x="0.4397" y="-3" relative="1" as="geometry">
            <mxPoint x="-18" y="27" as="offset" />
          </mxGeometry>
        </mxCell>
        <mxCell id="dvYXu0OYRY7wIcwB4xTE-72" value="0x70 freelist" style="text;html=1;align=center;verticalAlign=middle;whiteSpace=wrap;rounded=0;fontFamily=寒蝉圆黑体;fontStyle=1;labelBackgroundColor=none;" vertex="1" parent="1">
          <mxGeometry x="340" y="40" width="100" height="30" as="geometry" />
        </mxCell>
        <mxCell id="dvYXu0OYRY7wIcwB4xTE-74" value="" style="ellipse;whiteSpace=wrap;html=1;aspect=fixed;fontFamily=寒蝉圆黑体;fontStyle=1;labelBackgroundColor=none;fillColor=none;" vertex="1" parent="1">
          <mxGeometry x="380" y="80" width="20" height="20" as="geometry" />
        </mxCell>
        <mxCell id="dvYXu0OYRY7wIcwB4xTE-89" style="edgeStyle=orthogonalEdgeStyle;rounded=0;orthogonalLoop=1;jettySize=auto;html=1;exitX=0.5;exitY=1;exitDx=0;exitDy=0;fontFamily=寒蝉圆黑体;fontStyle=1;labelBackgroundColor=none;" edge="1" parent="1">
          <mxGeometry relative="1" as="geometry">
            <mxPoint x="190.34482758620697" y="319.9999999999998" as="targetPoint" />
            <mxPoint x="190" y="300" as="sourcePoint" />
          </mxGeometry>
        </mxCell>
        <mxCell id="dvYXu0OYRY7wIcwB4xTE-93" value="" style="ellipse;whiteSpace=wrap;html=1;aspect=fixed;fillColor=#000000;fontFamily=寒蝉圆黑体;fontStyle=1;labelBackgroundColor=none;" vertex="1" parent="1">
          <mxGeometry x="177.5" y="407.5" width="5" height="5" as="geometry" />
        </mxCell>
        <mxCell id="dvYXu0OYRY7wIcwB4xTE-94" value="" style="ellipse;whiteSpace=wrap;html=1;aspect=fixed;fillColor=#000000;fontFamily=寒蝉圆黑体;fontStyle=1;labelBackgroundColor=none;" vertex="1" parent="1">
          <mxGeometry x="187.5" y="407.5" width="5" height="5" as="geometry" />
        </mxCell>
        <mxCell id="dvYXu0OYRY7wIcwB4xTE-95" value="" style="ellipse;whiteSpace=wrap;html=1;aspect=fixed;fillColor=#000000;fontFamily=寒蝉圆黑体;fontStyle=1;labelBackgroundColor=none;" vertex="1" parent="1">
          <mxGeometry x="197.5" y="407.5" width="5" height="5" as="geometry" />
        </mxCell>
        <mxCell id="dvYXu0OYRY7wIcwB4xTE-104" value="" style="shape=flexArrow;endArrow=classic;html=1;rounded=0;endWidth=11.03448275862069;endSize=9.772413793103448;fontFamily=寒蝉圆黑体;fontStyle=1;labelBackgroundColor=none;fillColor=none;" edge="1" parent="1">
          <mxGeometry width="50" height="50" relative="1" as="geometry">
            <mxPoint x="450" y="190" as="sourcePoint" />
            <mxPoint x="530" y="190" as="targetPoint" />
          </mxGeometry>
        </mxCell>
        <mxCell id="dvYXu0OYRY7wIcwB4xTE-105" value="alloc(0x70)&lt;div&gt;&lt;font color=&quot;#ff0000&quot;&gt;fill(0x300=_efree.got)&lt;/font&gt;&lt;/div&gt;" style="edgeLabel;html=1;align=center;verticalAlign=middle;resizable=0;points=[];fontFamily=寒蝉圆黑体;fontStyle=1;labelBackgroundColor=none;" vertex="1" connectable="0" parent="dvYXu0OYRY7wIcwB4xTE-104">
          <mxGeometry x="0.4397" y="-3" relative="1" as="geometry">
            <mxPoint x="-18" y="27" as="offset" />
          </mxGeometry>
        </mxCell>
        <mxCell id="dvYXu0OYRY7wIcwB4xTE-110" value="0x70 freelist" style="text;html=1;align=center;verticalAlign=middle;whiteSpace=wrap;rounded=0;fontFamily=寒蝉圆黑体;fontStyle=1;labelBackgroundColor=none;" vertex="1" parent="1">
          <mxGeometry x="550" y="40" width="100" height="30" as="geometry" />
        </mxCell>
        <mxCell id="dvYXu0OYRY7wIcwB4xTE-193" style="edgeStyle=orthogonalEdgeStyle;rounded=0;orthogonalLoop=1;jettySize=auto;html=1;exitX=0.5;exitY=1;exitDx=0;exitDy=0;entryX=0.5;entryY=0;entryDx=0;entryDy=0;" edge="1" parent="1" source="dvYXu0OYRY7wIcwB4xTE-112" target="dvYXu0OYRY7wIcwB4xTE-184">
          <mxGeometry relative="1" as="geometry" />
        </mxCell>
        <mxCell id="dvYXu0OYRY7wIcwB4xTE-112" value="" style="ellipse;whiteSpace=wrap;html=1;aspect=fixed;fontFamily=寒蝉圆黑体;fontStyle=1;labelBackgroundColor=none;fillColor=none;" vertex="1" parent="1">
          <mxGeometry x="590" y="80" width="20" height="20" as="geometry" />
        </mxCell>
        <mxCell id="dvYXu0OYRY7wIcwB4xTE-130" value="" style="shape=flexArrow;endArrow=classic;html=1;rounded=0;endWidth=11.03448275862069;endSize=9.772413793103448;fontFamily=寒蝉圆黑体;fontStyle=1;labelBackgroundColor=none;fillColor=none;" edge="1" parent="1">
          <mxGeometry width="50" height="50" relative="1" as="geometry">
            <mxPoint x="660" y="190" as="sourcePoint" />
            <mxPoint x="740" y="190" as="targetPoint" />
          </mxGeometry>
        </mxCell>
        <mxCell id="dvYXu0OYRY7wIcwB4xTE-131" value="alloc(0x70)&lt;div&gt;off by null&lt;/div&gt;" style="edgeLabel;html=1;align=center;verticalAlign=middle;resizable=0;points=[];fontFamily=寒蝉圆黑体;fontStyle=1;labelBackgroundColor=none;" vertex="1" connectable="0" parent="dvYXu0OYRY7wIcwB4xTE-130">
          <mxGeometry x="0.4397" y="-3" relative="1" as="geometry">
            <mxPoint x="-18" y="27" as="offset" />
          </mxGeometry>
        </mxCell>
        <mxCell id="dvYXu0OYRY7wIcwB4xTE-136" value="0x70 freelist" style="text;html=1;align=center;verticalAlign=middle;whiteSpace=wrap;rounded=0;fontFamily=寒蝉圆黑体;fontStyle=1;labelBackgroundColor=none;" vertex="1" parent="1">
          <mxGeometry x="950" y="40" width="100" height="30" as="geometry" />
        </mxCell>
        <mxCell id="dvYXu0OYRY7wIcwB4xTE-150" style="edgeStyle=orthogonalEdgeStyle;rounded=0;orthogonalLoop=1;jettySize=auto;html=1;exitX=0.5;exitY=1;exitDx=0;exitDy=0;entryX=0.5;entryY=0;entryDx=0;entryDy=0;fontFamily=寒蝉圆黑体;fontStyle=1;labelBackgroundColor=none;" edge="1" parent="1" source="dvYXu0OYRY7wIcwB4xTE-138" target="dvYXu0OYRY7wIcwB4xTE-141">
          <mxGeometry relative="1" as="geometry" />
        </mxCell>
        <mxCell id="dvYXu0OYRY7wIcwB4xTE-138" value="" style="ellipse;whiteSpace=wrap;html=1;aspect=fixed;fontFamily=寒蝉圆黑体;fontStyle=1;labelBackgroundColor=none;fillColor=none;" vertex="1" parent="1">
          <mxGeometry x="990" y="80" width="20" height="20" as="geometry" />
        </mxCell>
        <mxCell id="dvYXu0OYRY7wIcwB4xTE-141" value="&lt;font color=&quot;#ff0000&quot;&gt;free.got&lt;/font&gt;" style="rounded=0;whiteSpace=wrap;html=1;fontFamily=寒蝉圆黑体;fontStyle=1;labelBackgroundColor=none;fillColor=none;" vertex="1" parent="1">
          <mxGeometry x="970" y="120" width="60" height="20" as="geometry" />
        </mxCell>
        <mxCell id="dvYXu0OYRY7wIcwB4xTE-152" value="" style="shape=flexArrow;endArrow=classic;html=1;rounded=0;endWidth=11.03448275862069;endSize=9.772413793103448;fontFamily=寒蝉圆黑体;fontStyle=1;labelBackgroundColor=none;fillColor=none;" edge="1" parent="1">
          <mxGeometry width="50" height="50" relative="1" as="geometry">
            <mxPoint x="1050" y="190" as="sourcePoint" />
            <mxPoint x="1130" y="190" as="targetPoint" />
          </mxGeometry>
        </mxCell>
        <mxCell id="dvYXu0OYRY7wIcwB4xTE-153" value="alloc(0x70)&lt;div&gt;fill(_efree.got-&amp;gt;system)&lt;/div&gt;&lt;div&gt;free -&amp;gt; getshell&lt;/div&gt;" style="edgeLabel;html=1;align=center;verticalAlign=middle;resizable=0;points=[];fontFamily=寒蝉圆黑体;fontStyle=1;labelBackgroundColor=none;" vertex="1" connectable="0" parent="dvYXu0OYRY7wIcwB4xTE-152">
          <mxGeometry x="0.4397" y="-3" relative="1" as="geometry">
            <mxPoint x="102" y="-3" as="offset" />
          </mxGeometry>
        </mxCell>
        <mxCell id="dvYXu0OYRY7wIcwB4xTE-154" value="" style="ellipse;whiteSpace=wrap;html=1;aspect=fixed;fillColor=#000000;fontFamily=寒蝉圆黑体;fontStyle=1;labelBackgroundColor=none;" vertex="1" parent="1">
          <mxGeometry x="177.5" y="207.5" width="5" height="5" as="geometry" />
        </mxCell>
        <mxCell id="dvYXu0OYRY7wIcwB4xTE-155" value="" style="ellipse;whiteSpace=wrap;html=1;aspect=fixed;fillColor=#000000;fontFamily=寒蝉圆黑体;fontStyle=1;labelBackgroundColor=none;" vertex="1" parent="1">
          <mxGeometry x="187.5" y="207.5" width="5" height="5" as="geometry" />
        </mxCell>
        <mxCell id="dvYXu0OYRY7wIcwB4xTE-156" value="" style="ellipse;whiteSpace=wrap;html=1;aspect=fixed;fillColor=#000000;fontFamily=寒蝉圆黑体;fontStyle=1;labelBackgroundColor=none;" vertex="1" parent="1">
          <mxGeometry x="197.5" y="207.5" width="5" height="5" as="geometry" />
        </mxCell>
        <mxCell id="dvYXu0OYRY7wIcwB4xTE-157" value="" style="edgeStyle=orthogonalEdgeStyle;rounded=0;orthogonalLoop=1;jettySize=auto;html=1;fontFamily=寒蝉圆黑体;fontStyle=1;labelBackgroundColor=none;" edge="1" parent="1">
          <mxGeometry relative="1" as="geometry">
            <mxPoint x="189.93" y="220" as="sourcePoint" />
            <mxPoint x="189.93" y="240" as="targetPoint" />
          </mxGeometry>
        </mxCell>
        <mxCell id="dvYXu0OYRY7wIcwB4xTE-158" value="0x380" style="rounded=0;whiteSpace=wrap;html=1;fontFamily=寒蝉圆黑体;fontStyle=1;labelBackgroundColor=none;fillColor=none;" vertex="1" parent="1">
          <mxGeometry x="170" y="320" width="40" height="20" as="geometry" />
        </mxCell>
        <mxCell id="dvYXu0OYRY7wIcwB4xTE-159" style="edgeStyle=orthogonalEdgeStyle;rounded=0;orthogonalLoop=1;jettySize=auto;html=1;exitX=0.5;exitY=1;exitDx=0;exitDy=0;fontFamily=寒蝉圆黑体;fontStyle=1;labelBackgroundColor=none;" edge="1" parent="1">
          <mxGeometry relative="1" as="geometry">
            <mxPoint x="190.34482758620697" y="359.9999999999998" as="targetPoint" />
            <mxPoint x="190" y="340" as="sourcePoint" />
          </mxGeometry>
        </mxCell>
        <mxCell id="dvYXu0OYRY7wIcwB4xTE-160" value="0x3F0" style="rounded=0;whiteSpace=wrap;html=1;fontFamily=寒蝉圆黑体;fontStyle=1;labelBackgroundColor=none;fillColor=none;" vertex="1" parent="1">
          <mxGeometry x="170" y="360" width="40" height="20" as="geometry" />
        </mxCell>
        <mxCell id="dvYXu0OYRY7wIcwB4xTE-161" style="edgeStyle=orthogonalEdgeStyle;rounded=0;orthogonalLoop=1;jettySize=auto;html=1;exitX=0.5;exitY=1;exitDx=0;exitDy=0;fontFamily=寒蝉圆黑体;fontStyle=1;labelBackgroundColor=none;" edge="1" parent="1">
          <mxGeometry relative="1" as="geometry">
            <mxPoint x="190.34482758620697" y="399.9999999999998" as="targetPoint" />
            <mxPoint x="190" y="380" as="sourcePoint" />
          </mxGeometry>
        </mxCell>
        <mxCell id="dvYXu0OYRY7wIcwB4xTE-162" value="" style="edgeStyle=orthogonalEdgeStyle;rounded=0;orthogonalLoop=1;jettySize=auto;html=1;fontFamily=寒蝉圆黑体;fontStyle=1;labelBackgroundColor=none;" edge="1" source="dvYXu0OYRY7wIcwB4xTE-163" target="dvYXu0OYRY7wIcwB4xTE-164" parent="1">
          <mxGeometry relative="1" as="geometry" />
        </mxCell>
        <mxCell id="dvYXu0OYRY7wIcwB4xTE-163" value="0x2A0" style="rounded=0;whiteSpace=wrap;html=1;fontFamily=寒蝉圆黑体;fontStyle=1;labelBackgroundColor=none;fillColor=none;" vertex="1" parent="1">
          <mxGeometry x="370" y="120" width="40" height="20" as="geometry" />
        </mxCell>
        <mxCell id="dvYXu0OYRY7wIcwB4xTE-164" value="0x310" style="rounded=0;whiteSpace=wrap;html=1;fontFamily=寒蝉圆黑体;fontStyle=1;labelBackgroundColor=none;fillColor=none;" vertex="1" parent="1">
          <mxGeometry x="370" y="160" width="40" height="20" as="geometry" />
        </mxCell>
        <mxCell id="dvYXu0OYRY7wIcwB4xTE-165" style="edgeStyle=orthogonalEdgeStyle;rounded=0;orthogonalLoop=1;jettySize=auto;html=1;exitX=0.5;exitY=1;exitDx=0;exitDy=0;fontFamily=寒蝉圆黑体;fontStyle=1;labelBackgroundColor=none;" edge="1" parent="1">
          <mxGeometry relative="1" as="geometry">
            <mxPoint x="390.344827586207" y="199.99999999999977" as="targetPoint" />
            <mxPoint x="390" y="180" as="sourcePoint" />
          </mxGeometry>
        </mxCell>
        <mxCell id="dvYXu0OYRY7wIcwB4xTE-166" value="" style="ellipse;whiteSpace=wrap;html=1;aspect=fixed;fillColor=#000000;fontFamily=寒蝉圆黑体;fontStyle=1;labelBackgroundColor=none;" vertex="1" parent="1">
          <mxGeometry x="377.5" y="287.5" width="5" height="5" as="geometry" />
        </mxCell>
        <mxCell id="dvYXu0OYRY7wIcwB4xTE-167" value="" style="ellipse;whiteSpace=wrap;html=1;aspect=fixed;fillColor=#000000;fontFamily=寒蝉圆黑体;fontStyle=1;labelBackgroundColor=none;" vertex="1" parent="1">
          <mxGeometry x="387.5" y="287.5" width="5" height="5" as="geometry" />
        </mxCell>
        <mxCell id="dvYXu0OYRY7wIcwB4xTE-168" value="" style="ellipse;whiteSpace=wrap;html=1;aspect=fixed;fillColor=#000000;fontFamily=寒蝉圆黑体;fontStyle=1;labelBackgroundColor=none;" vertex="1" parent="1">
          <mxGeometry x="397.5" y="287.5" width="5" height="5" as="geometry" />
        </mxCell>
        <mxCell id="dvYXu0OYRY7wIcwB4xTE-169" value="" style="edgeStyle=orthogonalEdgeStyle;rounded=0;orthogonalLoop=1;jettySize=auto;html=1;fontFamily=寒蝉圆黑体;fontStyle=1;labelBackgroundColor=none;" edge="1" parent="1">
          <mxGeometry relative="1" as="geometry">
            <mxPoint x="389.93" y="100" as="sourcePoint" />
            <mxPoint x="389.93" y="120" as="targetPoint" />
          </mxGeometry>
        </mxCell>
        <mxCell id="dvYXu0OYRY7wIcwB4xTE-170" value="0x380" style="rounded=0;whiteSpace=wrap;html=1;fontFamily=寒蝉圆黑体;fontStyle=1;labelBackgroundColor=none;fillColor=none;" vertex="1" parent="1">
          <mxGeometry x="370" y="200" width="40" height="20" as="geometry" />
        </mxCell>
        <mxCell id="dvYXu0OYRY7wIcwB4xTE-171" style="edgeStyle=orthogonalEdgeStyle;rounded=0;orthogonalLoop=1;jettySize=auto;html=1;exitX=0.5;exitY=1;exitDx=0;exitDy=0;fontFamily=寒蝉圆黑体;fontStyle=1;labelBackgroundColor=none;" edge="1" parent="1">
          <mxGeometry relative="1" as="geometry">
            <mxPoint x="390.344827586207" y="239.99999999999977" as="targetPoint" />
            <mxPoint x="390" y="220" as="sourcePoint" />
          </mxGeometry>
        </mxCell>
        <mxCell id="dvYXu0OYRY7wIcwB4xTE-172" value="0x3F0" style="rounded=0;whiteSpace=wrap;html=1;fontFamily=寒蝉圆黑体;fontStyle=1;labelBackgroundColor=none;fillColor=none;" vertex="1" parent="1">
          <mxGeometry x="370" y="240" width="40" height="20" as="geometry" />
        </mxCell>
        <mxCell id="dvYXu0OYRY7wIcwB4xTE-173" style="edgeStyle=orthogonalEdgeStyle;rounded=0;orthogonalLoop=1;jettySize=auto;html=1;exitX=0.5;exitY=1;exitDx=0;exitDy=0;fontFamily=寒蝉圆黑体;fontStyle=1;labelBackgroundColor=none;" edge="1" parent="1">
          <mxGeometry relative="1" as="geometry">
            <mxPoint x="390.344827586207" y="279.9999999999998" as="targetPoint" />
            <mxPoint x="390" y="260" as="sourcePoint" />
          </mxGeometry>
        </mxCell>
        <mxCell id="dvYXu0OYRY7wIcwB4xTE-184" value="0x310" style="rounded=0;whiteSpace=wrap;html=1;fontFamily=寒蝉圆黑体;fontStyle=1;labelBackgroundColor=none;fillColor=none;" vertex="1" parent="1">
          <mxGeometry x="580" y="120" width="40" height="20" as="geometry" />
        </mxCell>
        <mxCell id="dvYXu0OYRY7wIcwB4xTE-185" style="edgeStyle=orthogonalEdgeStyle;rounded=0;orthogonalLoop=1;jettySize=auto;html=1;exitX=0.5;exitY=1;exitDx=0;exitDy=0;fontFamily=寒蝉圆黑体;fontStyle=1;labelBackgroundColor=none;" edge="1" parent="1">
          <mxGeometry relative="1" as="geometry">
            <mxPoint x="600.344827586207" y="159.99999999999977" as="targetPoint" />
            <mxPoint x="600" y="140" as="sourcePoint" />
          </mxGeometry>
        </mxCell>
        <mxCell id="dvYXu0OYRY7wIcwB4xTE-186" value="" style="ellipse;whiteSpace=wrap;html=1;aspect=fixed;fillColor=#000000;fontFamily=寒蝉圆黑体;fontStyle=1;labelBackgroundColor=none;" vertex="1" parent="1">
          <mxGeometry x="587.5" y="247.5" width="5" height="5" as="geometry" />
        </mxCell>
        <mxCell id="dvYXu0OYRY7wIcwB4xTE-187" value="" style="ellipse;whiteSpace=wrap;html=1;aspect=fixed;fillColor=#000000;fontFamily=寒蝉圆黑体;fontStyle=1;labelBackgroundColor=none;" vertex="1" parent="1">
          <mxGeometry x="597.5" y="247.5" width="5" height="5" as="geometry" />
        </mxCell>
        <mxCell id="dvYXu0OYRY7wIcwB4xTE-188" value="" style="ellipse;whiteSpace=wrap;html=1;aspect=fixed;fillColor=#000000;fontFamily=寒蝉圆黑体;fontStyle=1;labelBackgroundColor=none;" vertex="1" parent="1">
          <mxGeometry x="607.5" y="247.5" width="5" height="5" as="geometry" />
        </mxCell>
        <mxCell id="dvYXu0OYRY7wIcwB4xTE-189" value="0x380" style="rounded=0;whiteSpace=wrap;html=1;fontFamily=寒蝉圆黑体;fontStyle=1;labelBackgroundColor=none;fillColor=none;" vertex="1" parent="1">
          <mxGeometry x="580" y="160" width="40" height="20" as="geometry" />
        </mxCell>
        <mxCell id="dvYXu0OYRY7wIcwB4xTE-190" style="edgeStyle=orthogonalEdgeStyle;rounded=0;orthogonalLoop=1;jettySize=auto;html=1;exitX=0.5;exitY=1;exitDx=0;exitDy=0;fontFamily=寒蝉圆黑体;fontStyle=1;labelBackgroundColor=none;" edge="1" parent="1">
          <mxGeometry relative="1" as="geometry">
            <mxPoint x="600.344827586207" y="199.99999999999977" as="targetPoint" />
            <mxPoint x="600" y="180" as="sourcePoint" />
          </mxGeometry>
        </mxCell>
        <mxCell id="dvYXu0OYRY7wIcwB4xTE-191" value="0x3F0" style="rounded=0;whiteSpace=wrap;html=1;fontFamily=寒蝉圆黑体;fontStyle=1;labelBackgroundColor=none;fillColor=none;" vertex="1" parent="1">
          <mxGeometry x="580" y="200" width="40" height="20" as="geometry" />
        </mxCell>
        <mxCell id="dvYXu0OYRY7wIcwB4xTE-192" style="edgeStyle=orthogonalEdgeStyle;rounded=0;orthogonalLoop=1;jettySize=auto;html=1;exitX=0.5;exitY=1;exitDx=0;exitDy=0;fontFamily=寒蝉圆黑体;fontStyle=1;labelBackgroundColor=none;" edge="1" parent="1">
          <mxGeometry relative="1" as="geometry">
            <mxPoint x="600.344827586207" y="239.99999999999977" as="targetPoint" />
            <mxPoint x="600" y="220" as="sourcePoint" />
          </mxGeometry>
        </mxCell>
        <mxCell id="dvYXu0OYRY7wIcwB4xTE-194" value="0x70 freelist" style="text;html=1;align=center;verticalAlign=middle;whiteSpace=wrap;rounded=0;fontFamily=寒蝉圆黑体;fontStyle=1;labelBackgroundColor=none;" vertex="1" parent="1">
          <mxGeometry x="750" y="40" width="100" height="30" as="geometry" />
        </mxCell>
        <mxCell id="dvYXu0OYRY7wIcwB4xTE-196" value="" style="ellipse;whiteSpace=wrap;html=1;aspect=fixed;fontFamily=寒蝉圆黑体;fontStyle=1;labelBackgroundColor=none;fillColor=none;" vertex="1" parent="1">
          <mxGeometry x="790" y="80" width="20" height="20" as="geometry" />
        </mxCell>
        <mxCell id="dvYXu0OYRY7wIcwB4xTE-198" style="edgeStyle=orthogonalEdgeStyle;rounded=0;orthogonalLoop=1;jettySize=auto;html=1;exitX=0.5;exitY=1;exitDx=0;exitDy=0;fontFamily=寒蝉圆黑体;fontStyle=1;labelBackgroundColor=none;" edge="1" parent="1">
          <mxGeometry relative="1" as="geometry">
            <mxPoint x="800.344827586207" y="119.99999999999977" as="targetPoint" />
            <mxPoint x="800" y="100" as="sourcePoint" />
          </mxGeometry>
        </mxCell>
        <mxCell id="dvYXu0OYRY7wIcwB4xTE-202" value="0x380" style="rounded=0;whiteSpace=wrap;html=1;fontFamily=寒蝉圆黑体;fontStyle=1;labelBackgroundColor=none;fillColor=none;" vertex="1" parent="1">
          <mxGeometry x="780" y="120" width="40" height="20" as="geometry" />
        </mxCell>
        <mxCell id="dvYXu0OYRY7wIcwB4xTE-203" style="edgeStyle=orthogonalEdgeStyle;rounded=0;orthogonalLoop=1;jettySize=auto;html=1;exitX=0.5;exitY=1;exitDx=0;exitDy=0;fontFamily=寒蝉圆黑体;fontStyle=1;labelBackgroundColor=none;" edge="1" parent="1">
          <mxGeometry relative="1" as="geometry">
            <mxPoint x="800.344827586207" y="159.99999999999977" as="targetPoint" />
            <mxPoint x="800" y="140" as="sourcePoint" />
          </mxGeometry>
        </mxCell>
        <mxCell id="dvYXu0OYRY7wIcwB4xTE-204" value="&lt;font color=&quot;#ff0000&quot;&gt;0x300&lt;/font&gt;" style="rounded=0;whiteSpace=wrap;html=1;fontFamily=寒蝉圆黑体;fontStyle=1;labelBackgroundColor=none;fillColor=none;" vertex="1" parent="1">
          <mxGeometry x="780" y="160" width="40" height="20" as="geometry" />
        </mxCell>
        <mxCell id="dvYXu0OYRY7wIcwB4xTE-205" style="edgeStyle=orthogonalEdgeStyle;rounded=0;orthogonalLoop=1;jettySize=auto;html=1;exitX=0.5;exitY=1;exitDx=0;exitDy=0;fontFamily=寒蝉圆黑体;fontStyle=1;labelBackgroundColor=none;" edge="1" parent="1">
          <mxGeometry relative="1" as="geometry">
            <mxPoint x="800.344827586207" y="199.99999999999977" as="targetPoint" />
            <mxPoint x="800" y="180" as="sourcePoint" />
          </mxGeometry>
        </mxCell>
        <mxCell id="dvYXu0OYRY7wIcwB4xTE-206" value="&lt;font color=&quot;#ff0000&quot;&gt;free.got&lt;/font&gt;" style="rounded=0;whiteSpace=wrap;html=1;fontFamily=寒蝉圆黑体;fontStyle=1;labelBackgroundColor=none;fillColor=none;" vertex="1" parent="1">
          <mxGeometry x="770" y="200" width="60" height="20" as="geometry" />
        </mxCell>
        <mxCell id="dvYXu0OYRY7wIcwB4xTE-207" value="" style="shape=flexArrow;endArrow=classic;html=1;rounded=0;endWidth=11.03448275862069;endSize=9.772413793103448;fontFamily=寒蝉圆黑体;fontStyle=1;labelBackgroundColor=none;fillColor=none;" edge="1" parent="1">
          <mxGeometry width="50" height="50" relative="1" as="geometry">
            <mxPoint x="860" y="190" as="sourcePoint" />
            <mxPoint x="940" y="190" as="targetPoint" />
          </mxGeometry>
        </mxCell>
        <mxCell id="dvYXu0OYRY7wIcwB4xTE-208" value="alloc(0x70) * 2" style="edgeLabel;html=1;align=center;verticalAlign=middle;resizable=0;points=[];fontFamily=寒蝉圆黑体;fontStyle=1;labelBackgroundColor=none;" vertex="1" connectable="0" parent="dvYXu0OYRY7wIcwB4xTE-207">
          <mxGeometry x="0.4397" y="-3" relative="1" as="geometry">
            <mxPoint x="-18" y="27" as="offset" />
          </mxGeometry>
        </mxCell>
      </root>
    </mxGraphModel>
  </diagram>
</mxfile>
